<?xml version="1.0" standalone="no"?>
<!DOCTYPE svg PUBLIC "-//W3C//DTD SVG 20010904//EN"
 "http://www.w3.org/TR/2001/REC-SVG-20010904/DTD/svg10.dtd">
<svg version="1.0" xmlns="http://www.w3.org/2000/svg"
 width="320.000000pt" height="320.000000pt" viewBox="0 0 320.000000 320.000000"
 preserveAspectRatio="xMidYMid meet">
<metadata>
Created by potrace 1.14, written by Peter Selinger 2001-2017
</metadata>
<g transform="translate(0.000000,320.000000) scale(0.100000,-0.100000)"
fill="#000000" stroke="none">
<path d="M1588 2915 c-2 -2 -34 -5 -73 -8 -84 -7 -115 -13 -209 -38 -39 -10
-80 -21 -91 -24 -11 -2 -29 -9 -40 -14 -11 -6 -47 -22 -80 -36 -126 -55 -249
-140 -365 -255 -174 -171 -296 -385 -351 -616 -28 -119 -29 -132 -28 -389 0
-19 17 -139 26 -180 2 -11 4 -113 4 -227 0 -121 4 -220 10 -238 15 -40 81 -96
127 -106 20 -4 60 -8 88 -9 50 -1 54 -4 125 -74 41 -41 92 -85 114 -100 22
-14 42 -28 45 -32 20 -22 181 -106 290 -151 14 -6 33 -14 42 -19 10 -5 26 -9
36 -9 10 0 22 -3 26 -7 4 -4 17 -8 29 -10 12 -1 40 -6 63 -12 97 -25 305 -30
424 -12 36 6 79 12 95 15 55 8 212 64 296 107 137 68 268 164 359 262 27 29
44 38 78 42 127 13 235 117 259 251 13 70 5 138 -21 197 -21 45 -22 53 -10 92
51 172 51 452 0 650 -2 6 -6 24 -10 40 -22 87 -97 238 -177 355 -92 134 -237
274 -375 362 -51 33 -196 101 -249 117 -22 7 -49 16 -60 21 -34 16 -217 48
-280 49 -33 1 -72 3 -87 5 -15 2 -29 2 -30 1z"/>
</g>
</svg>
